<svg width="153" height="42" viewBox="0 0 153 42" fill="none" xmlns="http://www.w3.org/2000/svg">
<path d="M46.8292 16.9597L39.536 9.71359C38.6354 9.47976 37.6987 9.36046 36.7525 9.36046C30.6695 9.36046 25.7175 14.278 25.7175 20.3215C25.7175 26.3676 30.6695 31.285 36.7525 31.285C37.6987 31.285 38.6328 31.1656 39.5334 30.9342L46.8292 23.6857C48.7003 21.8294 48.7003 18.8184 46.8292 16.9597ZM36.7021 23.5474C34.9755 23.5474 33.5779 22.1564 33.5779 20.4432C33.5779 18.7301 34.9778 17.3391 36.7021 17.3391C38.4287 17.3391 39.8266 18.7301 39.8266 20.4432C39.8266 22.1564 38.4287 23.5474 36.7021 23.5474ZM21.8006 20.3239C21.8006 12.6101 27.7491 6.25155 35.3284 5.53576L32.5259 2.74897C30.655 0.890316 27.6243 0.890316 25.7559 2.74897L11.45 16.9597C9.57918 18.8184 9.57918 21.8294 11.45 23.6857L25.7536 37.8966C27.6243 39.7553 30.655 39.7553 32.5234 37.8966L35.3261 35.1119C27.7491 34.3988 21.8006 28.0377 21.8006 20.3239Z" fill="white"/>
<path d="M63.8446 23.2062C61.8969 23.2062 60.3554 22.5811 59.2218 21.3333C58.0883 20.0855 57.5215 18.3795 57.5215 16.2202C57.5215 14.0728 58.0906 12.374 59.2313 11.1214C60.3721 9.86877 61.909 9.24365 63.8446 9.24365C65.4274 9.24365 66.7624 9.69221 67.8505 10.587C68.9382 11.4817 69.5554 12.6556 69.7068 14.1039H67.3125C67.1566 13.2545 66.7578 12.5744 66.1213 12.0615C65.4824 11.5485 64.7236 11.2932 63.8446 11.2932C62.675 11.2932 61.7432 11.737 61.0493 12.627C60.3554 13.5169 60.0072 14.7146 60.0072 16.2178C60.0072 17.7352 60.3528 18.9378 61.0444 19.823C61.736 20.7082 62.6727 21.152 63.8544 21.152C64.7524 21.152 65.5089 20.9229 66.1213 20.4648C66.7336 20.0068 67.1349 19.372 67.322 18.5584H69.7068C69.4932 20.0068 68.8638 21.1424 67.8216 21.968C66.7795 22.7935 65.4536 23.2062 63.8446 23.2062Z" fill="white"/>
<path d="M80.1324 22.9818L78.9726 19.4888H73.9679L72.8081 22.9818H70.3008L75.128 9.46777H77.8705L82.6951 22.9794H80.1324V22.9818ZM76.4365 11.8561L74.5324 17.6229H78.3963L76.5014 11.8561H76.4365Z" fill="white"/>
<path d="M92.7531 20.9394V22.9818H84.1484V9.46777H86.5814V20.9394H92.7531Z" fill="white"/>
<path d="M98.6783 22.9818H96.2552V17.6516L91.4883 9.46777H94.1564L97.4563 15.3492H97.5136L100.799 9.46777H103.448L98.6783 17.6516V22.9818Z" fill="white"/>
<path d="M104.902 9.46777H110.191C111.548 9.46777 112.65 9.8853 113.5 10.718C114.348 11.5507 114.773 12.6411 114.773 13.9915C114.773 15.3348 114.338 16.4228 113.466 17.2603C112.597 18.0978 111.471 18.5153 110.087 18.5153H107.335V22.9818H104.902V9.46777ZM107.333 11.4433V16.566H109.537C110.412 16.566 111.089 16.3418 111.574 15.8907C112.057 15.4422 112.299 14.8075 112.299 13.9891C112.299 13.1779 112.059 12.5504 111.579 12.1066C111.098 11.6628 110.421 11.441 109.547 11.441H107.333V11.4433Z" fill="white"/>
<path d="M115.984 19.1787H118.34C118.415 19.7966 118.736 20.2954 119.301 20.6724C119.865 21.0493 120.566 21.2378 121.402 21.2378C122.219 21.2378 122.886 21.0565 123.405 20.6938C123.924 20.3311 124.183 19.8706 124.183 19.3075C124.183 18.8209 123.993 18.4247 123.619 18.1241C123.242 17.8211 122.627 17.5706 121.772 17.3701L120.009 16.9574C118.758 16.671 117.831 16.2249 117.223 15.6188C116.616 15.0128 116.313 14.2278 116.313 13.2591C116.313 12.0662 116.784 11.0999 117.728 10.3554C118.669 9.61342 119.887 9.24121 121.376 9.24121C122.872 9.24121 124.075 9.60863 124.99 10.3411C125.905 11.076 126.378 12.0376 126.409 13.2305H124.092C124.034 12.6007 123.763 12.1044 123.273 11.7465C122.783 11.3886 122.144 11.2072 121.359 11.2072C120.593 11.2072 119.971 11.379 119.497 11.7226C119.022 12.0662 118.787 12.5195 118.787 13.0802C118.787 13.5288 118.972 13.8962 119.339 14.1754C119.706 14.4569 120.309 14.698 121.145 14.8959L122.711 15.2514C124.087 15.564 125.086 16.0198 125.708 16.6186C126.33 17.2174 126.642 18.0191 126.642 19.026C126.642 20.3048 126.16 21.3214 125.196 22.0729C124.231 22.8244 122.927 23.2015 121.28 23.2015C119.709 23.2015 118.448 22.8412 117.495 22.1206C116.536 21.4024 116.035 20.4217 115.984 19.1787Z" fill="white"/>
<path d="M134.457 9.24365C136.436 9.24365 138.006 9.87118 139.165 11.1262C140.322 12.3812 140.904 14.0823 140.904 16.2297C140.904 18.3772 140.325 20.0758 139.165 21.3285C138.005 22.5812 136.436 23.2062 134.457 23.2062C132.471 23.2062 130.898 22.5812 129.741 21.3285C128.581 20.0758 128.002 18.3772 128.002 16.2297C128.002 14.0823 128.581 12.3812 129.741 11.1262C130.901 9.87118 132.471 9.24365 134.457 9.24365ZM137.352 12.6389C136.636 11.7489 135.67 11.3051 134.457 11.3051C133.245 11.3051 132.279 11.7489 131.564 12.6341C130.848 13.5217 130.49 14.7194 130.49 16.2297C130.49 17.7352 130.848 18.9306 131.564 19.8159C132.279 20.7034 133.245 21.1448 134.457 21.1448C135.67 21.1448 136.636 20.701 137.352 19.8159C138.066 18.9306 138.424 17.7329 138.424 16.2297C138.424 14.7242 138.066 13.5288 137.352 12.6389Z" fill="white"/>
<path d="M58.0342 28.2368V33.2093H57.7285V28.2368H58.0342Z" fill="white"/>
<path d="M59.4824 28.2368H59.8146L61.7424 32.7724H61.7764L63.7042 28.2368H64.0367V33.2093H63.7435V28.9579H63.714L61.9036 33.2093H61.6153L59.8048 28.9579H59.7756V33.2093H59.4824V28.2368Z" fill="white"/>
<path d="M65.4824 33.2093V28.2368H67.0242C67.3417 28.2368 67.6139 28.3015 67.8403 28.4311C68.0684 28.5605 68.2433 28.7378 68.3655 28.9628C68.4877 29.1878 68.5486 29.4443 68.5486 29.7324C68.5486 30.0173 68.4877 30.2723 68.3655 30.4973C68.2433 30.7222 68.0684 30.9003 67.8403 31.0314C67.6139 31.1609 67.3427 31.2257 67.0265 31.2257H65.6977V30.944H67.0193C67.2768 30.944 67.4966 30.8922 67.6791 30.7886C67.8613 30.6834 68.0015 30.5401 68.0991 30.3589C68.1971 30.1759 68.2459 29.9672 68.2459 29.7324C68.2459 29.4961 68.1971 29.2865 68.0991 29.1036C68.0015 28.9207 67.8606 28.7774 67.6765 28.6738C67.494 28.5702 67.2742 28.5184 67.017 28.5184H65.7881V33.2093H65.4824Z" fill="white"/>
<path d="M69.0196 33.2093H68.6973L70.5028 28.2368H70.8547L72.6602 33.2093H72.3375L70.6908 28.6277H70.6663L69.0196 33.2093ZM69.4767 31.3373H71.8808V31.619H69.4767V31.3373Z" fill="white"/>
<path d="M77.169 29.7908H76.8564C76.8237 29.6225 76.7627 29.4598 76.673 29.3028C76.5835 29.1442 76.4679 29.0017 76.326 28.8755C76.1861 28.7476 76.0233 28.6464 75.8375 28.572C75.6518 28.4975 75.4467 28.4603 75.2219 28.4603C74.8927 28.4603 74.5899 28.5477 74.3128 28.7225C74.0376 28.8957 73.8171 29.1506 73.6506 29.4873C73.4862 29.824 73.4039 30.236 73.4039 30.7232C73.4039 31.2136 73.4862 31.6272 73.6506 31.9639C73.8171 32.3005 74.0376 32.5555 74.3128 32.7288C74.5899 32.9004 74.8927 32.9861 75.2219 32.9861C75.4467 32.9861 75.6518 32.9496 75.8375 32.8767C76.0233 32.8024 76.1861 32.7018 76.326 32.5758C76.4679 32.4479 76.5835 32.3046 76.673 32.146C76.7627 31.9873 76.8237 31.8239 76.8564 31.6555H77.169C77.1333 31.8562 77.0638 32.0529 76.9613 32.2455C76.8604 32.4381 76.7267 32.6129 76.5606 32.7699C76.3961 32.9255 76.2015 33.0492 75.9768 33.1414C75.7537 33.2322 75.502 33.2774 75.2219 33.2774C74.8049 33.2774 74.4376 33.1723 74.1198 32.9616C73.8023 32.7497 73.553 32.4519 73.3722 32.0683C73.193 31.6847 73.1035 31.2363 73.1035 30.7232C73.1035 30.21 73.193 29.7617 73.3722 29.3781C73.553 28.9945 73.8023 28.6974 74.1198 28.487C74.4376 28.275 74.8049 28.1689 75.2219 28.1689C75.502 28.1689 75.7537 28.215 75.9768 28.3073C76.2015 28.398 76.3961 28.521 76.5606 28.6764C76.7267 28.8301 76.8604 29.0033 76.9613 29.196C77.0638 29.3886 77.1333 29.5869 77.169 29.7908Z" fill="white"/>
<path d="M78.0098 28.5184V28.2368H81.516V28.5184H79.9155V33.2093H79.6102V28.5184H78.0098Z" fill="white"/>
<path d="M82.6289 33.2093V28.2368H85.4216V28.5184H82.9346V30.5798H85.1896V30.8615H82.9346V33.2093H82.6289Z" fill="white"/>
<path d="M90.0488 28.2368H90.3545V31.5292C90.3545 31.8674 90.2752 32.1693 90.1173 32.4348C89.9593 32.6988 89.7411 32.9075 89.4627 33.0612C89.1855 33.2135 88.8674 33.2894 88.5073 33.2894C88.1489 33.2894 87.8304 33.2135 87.552 33.0612C87.2735 32.9075 87.0543 32.6978 86.8948 32.4324C86.7368 32.1669 86.6585 31.8658 86.6602 31.5292V28.2368H86.9655V31.5122C86.9655 31.7986 87.0307 32.0536 87.1611 32.277C87.2928 32.5003 87.4746 32.6766 87.706 32.8062C87.9373 32.9342 88.2043 32.998 88.5073 32.998C88.8104 32.998 89.0774 32.9342 89.3087 32.8062C89.54 32.6766 89.7208 32.5003 89.8509 32.277C89.9829 32.0536 90.0488 31.7986 90.0488 31.5122V28.2368Z" fill="white"/>
<path d="M91.8008 33.2093V28.2368H92.1061V32.9277H94.5492V33.2093H91.8008Z" fill="white"/>
<path d="M97.4122 33.2093H97.0898L98.8954 28.2368H99.2472L101.053 33.2093H100.73L99.0834 28.6277H99.0589L97.4122 33.2093ZM97.8693 31.3373H100.273V31.619H97.8693V31.3373Z" fill="white"/>
<path d="M105.564 29.7908H105.251C105.218 29.6225 105.157 29.4598 105.067 29.3028C104.978 29.1442 104.862 29.0017 104.721 28.8755C104.581 28.7476 104.418 28.6464 104.232 28.572C104.046 28.4975 103.841 28.4603 103.616 28.4603C103.287 28.4603 102.984 28.5477 102.707 28.7225C102.432 28.8957 102.212 29.1506 102.045 29.4873C101.881 29.824 101.798 30.236 101.798 30.7232C101.798 31.2136 101.881 31.6272 102.045 31.9639C102.212 32.3005 102.432 32.5555 102.707 32.7288C102.984 32.9004 103.287 32.9861 103.616 32.9861C103.841 32.9861 104.046 32.9496 104.232 32.8767C104.418 32.8024 104.581 32.7018 104.721 32.5758C104.862 32.4479 104.978 32.3046 105.067 32.146C105.157 31.9873 105.218 31.8239 105.251 31.6555H105.564C105.528 31.8562 105.458 32.0529 105.356 32.2455C105.255 32.4381 105.121 32.6129 104.955 32.7699C104.791 32.9255 104.596 33.0492 104.371 33.1414C104.148 33.2322 103.897 33.2774 103.616 33.2774C103.199 33.2774 102.832 33.1723 102.514 32.9616C102.197 32.7497 101.948 32.4519 101.767 32.0683C101.587 31.6847 101.498 31.2363 101.498 30.7232C101.498 30.21 101.587 29.7617 101.767 29.3781C101.948 28.9945 102.197 28.6974 102.514 28.487C102.832 28.275 103.199 28.1689 103.616 28.1689C103.897 28.1689 104.148 28.215 104.371 28.3073C104.596 28.398 104.791 28.521 104.955 28.6764C105.121 28.8301 105.255 29.0033 105.356 29.196C105.458 29.3886 105.528 29.5869 105.564 29.7908Z" fill="white"/>
<path d="M110.548 29.7908H110.235C110.203 29.6225 110.141 29.4598 110.052 29.3028C109.962 29.1442 109.847 29.0017 109.705 28.8755C109.565 28.7476 109.402 28.6464 109.216 28.572C109.031 28.4975 108.825 28.4603 108.601 28.4603C108.272 28.4603 107.969 28.5477 107.692 28.7225C107.416 28.8957 107.196 29.1506 107.03 29.4873C106.865 29.824 106.783 30.236 106.783 30.7232C106.783 31.2136 106.865 31.6272 107.03 31.9639C107.196 32.3005 107.416 32.5555 107.692 32.7288C107.969 32.9004 108.272 32.9861 108.601 32.9861C108.825 32.9861 109.031 32.9496 109.216 32.8767C109.402 32.8024 109.565 32.7018 109.705 32.5758C109.847 32.4479 109.962 32.3046 110.052 32.146C110.141 31.9873 110.203 31.8239 110.235 31.6555H110.548C110.512 31.8562 110.443 32.0529 110.34 32.2455C110.239 32.4381 110.106 32.6129 109.94 32.7699C109.775 32.9255 109.58 33.0492 109.356 33.1414C109.133 33.2322 108.881 33.2774 108.601 33.2774C108.184 33.2774 107.817 33.1723 107.499 32.9616C107.181 32.7497 106.932 32.4519 106.751 32.0683C106.572 31.6847 106.482 31.2363 106.482 30.7232C106.482 30.21 106.572 29.7617 106.751 29.3781C106.932 28.9945 107.181 28.6974 107.499 28.487C107.817 28.275 108.184 28.1689 108.601 28.1689C108.881 28.1689 109.133 28.215 109.356 28.3073C109.58 28.398 109.775 28.521 109.94 28.6764C110.106 28.8301 110.239 29.0033 110.34 29.196C110.443 29.3886 110.512 29.5869 110.548 29.7908Z" fill="white"/>
<path d="M111.723 33.2093V28.2368H114.508V28.5184H112.028V30.5798H114.359V30.8615H112.028V32.9277H114.567V33.2093H111.723Z" fill="white"/>
<path d="M115.773 33.2093V28.2368H116.079V32.9277H118.522V33.2093H115.773Z" fill="white"/>
<path d="M119.645 33.2093V28.2368H122.43V28.5184H119.95V30.5798H122.281V30.8615H119.95V32.9277H122.488V33.2093H119.645Z" fill="white"/>
<path d="M123.695 33.2093V28.2368H125.237C125.553 28.2368 125.825 28.2983 126.053 28.4213C126.281 28.5444 126.456 28.7151 126.578 28.9336C126.701 29.1505 126.762 29.403 126.762 29.6912C126.762 29.976 126.701 30.2269 126.578 30.4438C126.456 30.6591 126.281 30.8275 126.053 30.9489C125.826 31.0703 125.556 31.131 125.239 31.131H123.859V30.8469H125.232C125.489 30.8469 125.709 30.7991 125.892 30.7036C126.074 30.6081 126.214 30.4746 126.312 30.303C126.41 30.1298 126.458 29.9259 126.458 29.6912C126.458 29.4548 126.41 29.2493 126.312 29.0745C126.214 28.898 126.074 28.7613 125.889 28.6641C125.707 28.567 125.487 28.5184 125.23 28.5184H124.001V33.2093H123.695ZM125.75 30.9561L126.981 33.2093H126.63L125.406 30.9561H125.75Z" fill="white"/>
<path d="M127.789 33.2093H127.467L129.272 28.2368H129.624L131.429 33.2093H131.107L129.46 28.6277H129.436L127.789 33.2093ZM128.246 31.3373H130.65V31.619H128.246V31.3373Z" fill="white"/>
<path d="M131.445 28.5184V28.2368H134.951V28.5184H133.351V33.2093H133.045V28.5184H131.445Z" fill="white"/>
<path d="M139.835 30.7232C139.835 31.2363 139.746 31.6847 139.567 32.0683C139.388 32.4503 139.138 32.7474 138.819 32.9594C138.502 33.1713 138.135 33.2774 137.72 33.2774C137.303 33.2774 136.935 33.1713 136.615 32.9594C136.298 32.7458 136.049 32.4479 135.87 32.0659C135.691 31.6822 135.602 31.2347 135.602 30.7232C135.602 30.21 135.691 29.7625 135.87 29.3805C136.051 28.9985 136.3 28.7015 136.618 28.4894C136.935 28.2758 137.303 28.1689 137.72 28.1689C138.135 28.1689 138.502 28.275 138.819 28.487C139.138 28.6991 139.388 28.9969 139.567 29.3805C139.746 29.7625 139.835 30.21 139.835 30.7232ZM139.538 30.7232C139.538 30.2618 139.459 29.862 139.303 29.5238C139.148 29.1854 138.934 28.924 138.66 28.7395C138.387 28.5534 138.073 28.4603 137.72 28.4603C137.366 28.4603 137.053 28.5525 136.779 28.7371C136.505 28.92 136.291 29.1814 136.134 29.5213C135.979 29.8596 135.902 30.2603 135.902 30.7232C135.902 31.1813 135.979 31.5803 136.132 31.9202C136.286 32.2585 136.501 32.5207 136.774 32.7067C137.048 32.8929 137.363 32.9861 137.72 32.9861C138.073 32.9861 138.387 32.8939 138.66 32.7093C138.934 32.5231 139.148 32.2609 139.303 31.9226C139.459 31.5843 139.538 31.1845 139.538 30.7232Z" fill="white"/>
<path d="M141.029 33.2093V28.2368H142.571C142.887 28.2368 143.159 28.2983 143.387 28.4213C143.615 28.5444 143.79 28.7151 143.912 28.9336C144.035 29.1505 144.096 29.403 144.096 29.6912C144.096 29.976 144.035 30.2269 143.912 30.4438C143.79 30.6591 143.615 30.8275 143.387 30.9489C143.161 31.0703 142.89 31.131 142.573 31.131H141.193V30.8469H142.566C142.823 30.8469 143.044 30.7991 143.226 30.7036C143.408 30.6081 143.548 30.4746 143.646 30.303C143.744 30.1298 143.793 29.9259 143.793 29.6912C143.793 29.4548 143.744 29.2493 143.646 29.0745C143.548 28.898 143.408 28.7613 143.223 28.6641C143.041 28.567 142.821 28.5184 142.564 28.5184H141.335V33.2093H141.029ZM143.084 30.9561L144.315 33.2093H143.964L142.739 30.9561H143.084Z" fill="white"/>
</svg>
